# xmcd CD database file
#
# Track frame offsets:
#	183
#	12408
#	25390
#	36733
#	50393
#	64813
#	77825
#	90515
#	102050
#	116225
#	130200
#	142890
#	157050
#	170648
#	182960
#	194593
#	208573
#	222243
#	236490
#	252103
#	264330
#	276993
#	292353
#	307670
#
# Disc length: 4290 seconds
#
# Revision: 0
# Processed by: cddbd v1.4PL0 Copyright (c) Steve Scherf et al.
# Submitted via: CDex 1.50Beta7
#
DISCID=6c10c018
DTITLE=King Oliver - I Maestri del Jazz - King Oliver (The King)
DYEAR=1991
DGENRE=Jazz
TTITLE0=Just Gone
TTITLE1=Chimes Blues
TTITLE2=Dipper Mouth Blues
TTITLE3=Chattanooga Stomp
TTITLE4=Tears
TTITLE5=Riverside Blues
TTITLE6=Mabel's Dream
TTITLE7=King Porter Stomp
TTITLE8=Deep Henderson
TTITLE9=Jackass Blues
TTITLE10=Wa Wa Wa
TTITLE11=Snag It
TTITLE12=Black Snake Blues
TTITLE13=Bozo
TTITLE14=Bimbo
TTITLE15=Jet Black Blues
TTITLE16=Blue Blood Blues
TTITLE17=What You Want Me To Do
TTITLE18=Sweet Like This
TTITLE19=Edna
TTITLE20=Don't You Think I Love You
TTITLE21=Olga
TTITLE22=Stealing Love
TTITLE23=Stop Crying
EXTD=YEAR: 1991
EXTT0=
EXTT1=
EXTT2=
EXTT3=
EXTT4=
EXTT5=
EXTT6=
EXTT7=
EXTT8=
EXTT9=
EXTT10=
EXTT11=
EXTT12=
EXTT13=
EXTT14=
EXTT15=
EXTT16=
EXTT17=
EXTT18=
EXTT19=
EXTT20=
EXTT21=
EXTT22=
EXTT23=
PLAYORDER=
